<?xml version="1.0" standalone="no"?><!DOCTYPE svg PUBLIC "-//W3C//DTD SVG 1.1//EN" "http://www.w3.org/Graphics/SVG/1.1/DTD/svg11.dtd"><svg t="1659015886185" class="icon" viewBox="0 0 1024 1024" version="1.1" xmlns="http://www.w3.org/2000/svg" p-id="2279" xmlns:xlink="http://www.w3.org/1999/xlink" width="200" height="200"><defs><style type="text/css">@font-face { font-family: feedback-iconfont; src: url("//at.alicdn.com/t/font_1031158_u69w8yhxdu.woff2?t=1630033759944") format("woff2"), url("//at.alicdn.com/t/font_1031158_u69w8yhxdu.woff?t=1630033759944") format("woff"), url("//at.alicdn.com/t/font_1031158_u69w8yhxdu.ttf?t=1630033759944") format("truetype"); }
</style></defs><path d="M416 640c-8 0-16-3.2-22.4-9.6-12.8-12.8-12.8-32 0-44.8l480-480c12.8-12.8 32-12.8 44.8 0 12.8 12.8 12.8 32 0 44.8l-480 480c-6.4 6.4-14.4 9.6-22.4 9.6z" p-id="2280" fill="#3d3d3d"></path><path d="M800 896H224c-52.8 0-96-43.2-96-96V224c0-52.8 43.2-96 96-96h416c17.6 0 32 14.4 32 32s-14.4 32-32 32H224c-17.6 0-32 14.4-32 32v576c0 17.6 14.4 32 32 32h576c17.6 0 32-14.4 32-32V384c0-17.6 14.4-32 32-32s32 14.4 32 32v416c0 52.8-43.2 96-96 96z" p-id="2281" fill="#3d3d3d"></path></svg>