<?xml version="1.0" encoding="utf-8"?>
<!-- Generator: Adobe Illustrator 25.4.1, SVG Export Plug-In . SVG Version: 6.00 Build 0)  -->
<svg version="1.1" id="图层_1" xmlns="http://www.w3.org/2000/svg" xmlns:xlink="http://www.w3.org/1999/xlink" x="0px" y="0px"
	 viewBox="0 0 448 448" style="enable-background:new 0 0 448 448;" xml:space="preserve">
<style type="text/css">
	.st0{fill:none;}
	.st1{fill:none;stroke:#FFFFFF;stroke-width:6;stroke-miterlimit:10;}
	.st2{fill:#FFFFFF;}
	.st3{fill:#91B3FB;}
</style>
<path class="st0" d="M447.9,224c0,73.3,0,146.6,0.1,219.8c0,3.3-0.4,4.2-4,4.2c-146.6-0.1-293.1-0.1-439.7,0c-3.7,0-4.3-0.9-4.3-4.4
	C0.1,297.2,0.1,150.8,0,4.4C0,1,0.4,0,4.3,0C150.8,0.1,297.4,0.1,444,0c3.5,0,4,0.8,4,4.1C447.9,77.4,447.9,150.7,447.9,224z"/>
<path class="st1" d="M167.7,272c-1.4-0.3-5.5,3.1-6.4,2.1c-11.9-13-16.1-19.3-28.9-31.4c-4.3-5.5-4.5-13-0.7-18.5
	c3.2-4.6,7.7-7.8,11.5-11.7c12-12.2,24.2-24.3,36.2-36.5c10.2-10.5,21-20.4,31-31.1c2-1,3.8-2,5.2-3.5c11.8-11,22.2-23.5,34.9-33.5
	c16.6-13,35.4-21,55.7-26.2c17.4-4.5,35-6.3,52.8-5.9c3.6,0.1,7.9-1,10.2,3.3c1.5,1.9,0.3,3.4-0.9,4.8c-1.2,1.4-2.5,2.6-3.8,3.9
	c-43.4,43.4-86.9,86.9-130.4,130.3c-15.9,15.9-31.6,31.9-47.7,47.6c-3.8,3.7-5.8,7.2-8.4,11.6c-0.9,4.3-1.4-2.5-3.1-0.6
	c-1.5-0.4-28-10.4-18.9-1.2"/>
<path class="st2" d="M175.7,279.3c-2.7-3.4-1.5-5.2,1.6-8.3c16.5-16.8,34.1-32.4,49.8-50.1c1.7-2,4.1-3.4,5.9-5.3
	c44.6-44.6,89.3-89.2,133.8-133.8c1.7-1.7,4.2-3,3.7-6.1c5.6,2.6,5.6,8,5.6,12.8c-0.2,28.2-4.4,55.7-16.3,81.6
	c-5.1,11-11.4,21.2-19.3,30.4c-9.3,10.5-19.6,19.9-29.4,29.9c-1.6,1.7-3.4,3.2-4.1,5.5c-8.9,9.6-18.5,18.7-27.7,28
	c-15.4,15.5-30.8,30.9-46.2,46.2c-10.3,10.2-18.6,10.3-28.8,0.1c-8.6-8.6-17.2-17.1-25.7-25.8C177.2,283.1,175,282,175.7,279.3z"/>
<path class="st3" d="M189.6,354.1"/>
<path class="st1" d="M303,228.8c3.7,10.9,6.4,22.1,9.1,33.3c1.2,5,2.4,10,4.1,14.9c1.8,5.2,0.4,9.8-3.2,13.3
	c-24.6,24.8-49.4,49.4-74.1,74.2c-4,4.1-9,4.1-13.4,2.7c-5.5-1.8-7.5-6.5-9.5-12.4c-1.1-6-4.3-13.4-4.8-21.2
	c-0.6-2.8-1.1-4.4-1.3-6.8c-1-6.5,6.4-17.1-4.4-2c-1.6,1.2-2.8,2.8-4.3,4.1c-5.4,5.2-10.8,10.3-16.2,15.4c-5,4.7-13.1,4.7-18-0.1
	c-7.2-7.1-14.3-14.4-21.6-21.5c-5.4-5.4-10.9-10.6-16.4-16c10.5-11.1,21.6-21.7,32.3-32.6c4.4-4.5,4.4-4.5-0.1-9
	c-9.2-9.2-18.4-18.3-27.5-27.6c-1.5-1.5-4.2-2.7-2.8-5.7c10,8.6,18.7,18.4,28.1,27.5c4.4,4.3,8.6,8.7,12.9,13
	c10.7,11.9,22,23.1,33.8,33.9c6.3,5.8,14.4,4.4,21.3-2.5c23.1-23.1,46.2-46.2,69.3-69.2C298.5,232.7,300.8,230.8,303,228.8z"/>
<path class="st2" d="M135,240.2c0.2,2.1,1.9,3.1,3.1,4.3c10.1,10.1,20.2,20.2,30.3,30.3c1.7,1.7,3.4,3,0.8,5.6
	c-11.1,10.9-22.1,22-33.1,33c-0.8,0.8-1.8,1.5-3,1.6c-12.2-12.1-24.5-24-36.5-36.2c-5.1-5.2-4.6-12.8,0.7-18.3
	c5.8-6,11.8-11.8,17.6-17.7c1.2-1.2,3.4-2.3,2.6-4.4c-0.7-2-3.1-1.6-4.8-2.1c-10.1-2.9-20.6-4.5-30.5-8.3c-8.8-3.3-11.5-14-4.8-20.8
	c24.5-24.7,49.1-49.3,73.9-73.8c3.5-3.4,7.7-4.4,13.5-3.1c13.3,2.9,26.3,6.5,39.4,9.9c3.1,0.8,6.5,2.1,9,3c-0.4,2-2,3-3.3,4.3
	c-21.5,21.5-43,43-64.5,64.4c-3.4,3.4-7.2,6.3-10.2,10.1C131,227.3,130.8,234.6,135,240.2z"/>
</svg>
